HIERARCHY
ROOT Hips
{
	OFFSET 0.000000 0.000000 0.000000 
	CHANNELS 6 Xposition Yposition Zposition Yrotation Zrotation Xrotation 
	JOINT Lumbar
	{
		OFFSET 0.000000 0.000000 0.000000 
		CHANNELS 3 Zrotation Xrotation Yrotation
		JOINT Neck
		{
			OFFSET 0.000000 0.445665 0.000000 
			CHANNELS 3 Zrotation Xrotation Yrotation
			End Site
			{
				OFFSET 0.000000 0.227535 0.000000 
			}
		}
		JOINT RightShoulder
		{
			OFFSET 0.019635 0.377685 0.194865 
			CHANNELS 3 Zrotation Xrotation Yrotation
			JOINT RightElbow
			{
				OFFSET 0.000000 -0.243375 0.000000 
				CHANNELS 2 Zrotation Yrotation
				JOINT RightWrist
				{
					OFFSET 0.000000 -0.264825 0.000000 
					CHANNELS 2 Zrotation Xrotation
					End Site
					{
						OFFSET 0.006600 -0.176220 0.000990 
					}
				}
			}
		}
		JOINT LeftShoulder
		{
			OFFSET 0.019635 0.377685 -0.194865 
			CHANNELS 3 Zrotation Xrotation Yrotation
			JOINT LeftElbow
			{
				OFFSET 0.000000 -0.243375 0.000000 
				CHANNELS 2 Zrotation Yrotation
				JOINT LeftWrist
				{
					OFFSET 0.000000 -0.264825 0.000000 
					CHANNELS 2 Zrotation Xrotation
					End Site
					{
						OFFSET 0.006600 -0.176220 -0.000990 
					}
				}
			}
		}
	}
	JOINT RightHip
	{
		OFFSET 0.052140 -0.069960 0.075570 
		CHANNELS 3 Zrotation Xrotation Yrotation
		JOINT RightKnee
		{
			OFFSET 0.000000 -0.402270 0.000000 
			CHANNELS 1 Zrotation
			JOINT RightAnkle
			{
				OFFSET 0.000000 -0.404085 0.000000 
				CHANNELS 3 Zrotation Xrotation Yrotation
				End Site
				{
					OFFSET 0.204105 -0.089430 0.008415 
				}
			}
		}
	}
	JOINT LeftHip
	{
		OFFSET 0.052140 -0.069960 -0.075570 
		CHANNELS 3 Zrotation Xrotation Yrotation
		JOINT LeftKnee
		{
			OFFSET 0.000000 -0.402270 0.000000 
			CHANNELS 1 Zrotation
			JOINT LeftAnkle
			{
				OFFSET 0.000000 -0.404085 0.000000 
				CHANNELS 3 Zrotation Xrotation Yrotation
				End Site
				{
					OFFSET 0.204105 -0.089430 -0.008415 
				}
			}
		}
	}
}
MOTION
Frames: 11
Frame Time: 0.02
0.25369 -0.01537 -0.25884 -31.75878 -40.04067 -2.04377 48.44151 -2.64009 -16.41076 5.41005 3.61597 -0.83079 140.77658 -64.60183 64.1709 5.32863 110.47324 20.53507 1.30365 169.88192 171.02725 90.01161 137.27213 -79.79296 -68.29259 4.34414 65.99159 -5.45579 -9.55691 -24.19248 -8.19976 -3.81451 -2.74843 40.42145 -3.07615 12.88347 -22.55749 -6.47641 2.5332 1.94238
0.26401 -0.01712 -0.24973 -31.73819 -40.25366 -2.07966 48.63026 -2.68046 -16.50395 5.29089 3.80495 -0.83079 140.68216 -64.53012 64.17013 5.32898 110.40932 20.48178 1.22949 169.88191 171.02835 90.01161 137.33917 -79.78769 -68.34185 4.33424 66.5192 -5.18206 -9.53013 -23.58941 -8.07058 -3.9343 -2.80321 39.63416 -2.88843 12.91241 -22.46728 -6.40058 2.54514 1.94435
0.27489 -0.01901 -0.24002 -31.6806 -40.42199 -2.13938 48.83468 -2.70959 -16.62609 5.1773 3.99847 -0.83079 140.67277 -64.46974 64.16894 5.32948 110.57471 20.52223 1.15554 169.88192 171.02663 90.01161 137.38174 -79.7782 -68.4907 4.33144 66.87538 -4.99608 -9.60206 -23.72527 -7.87166 -4.02768 -2.83688 38.75177 -2.65698 12.93473 -22.36624 -6.33423 2.55396 1.9443
0.28556 -0.02079 -0.23051 -31.64362 -40.60483 -2.20234 49.02906 -2.73928 -16.74743 5.06706 4.19546 -0.83079 140.60369 -64.4127 64.16799 5.3299 110.59529 20.5239 1.07836 169.88192 171.02725 90.01161 137.42447 -79.76696 -68.61338 4.32748 67.27702 -4.7482 -9.59654 -23.52219 -7.71253 -4.127 -2.87745 37.90419 -2.43676 12.91509 -22.2642 -6.26667 2.56915 1.94805
0.29608 -0.02279 -0.2213 -31.59127 -40.8145 -2.20607 49.2401 -2.78793 -16.81398 4.92937 4.36942 -0.83079 140.62672 -64.3192 64.16685 5.33033 110.78742 20.50916 1.01501 169.88191 171.03183 90.01161 137.51295 -79.76807 -68.65793 4.31679 67.81734 -4.58633 -9.70594 -23.33999 -7.52042 -4.25323 -2.9302 37.0917 -2.25507 13.07776 -22.18391 -6.18517 2.56539 1.94062
0.30702 -0.02435 -0.21131 -31.56175 -40.9573 -2.33748 49.41874 -2.79543 -17.00132 4.85153 4.59166 -0.83079 140.47846 -64.30573 64.16598 5.33083 110.67899 20.55119 0.92291 169.88192 171.01689 90.01161 137.50107 -79.74646 -68.88543 4.31939 68.0271 -4.27103 -9.61627 -23.28677 -7.37941 -4.31665 -2.95223 36.18637 -1.98145 12.86636 -22.0604 -6.13603 2.59874 1.95519
0.319 -0.0247 -0.19941 -31.60658 -40.91946 -2.83137 49.50085 -2.6806 -17.52955 4.93277 4.95394 -0.83079 139.817 -64.49566 64.16601 5.33121 109.6566 20.72477 0.74887 169.88193 171.04111 90.01162 137.21128 -79.62731 -69.62443 4.37832 67.36946 -3.48266 -8.84961 -23.40995 -7.40368 -4.21288 -2.89475 35.01697 -1.47115 11.56901 -21.7815 -6.16547 2.74582 2.03638
0.33136 -0.02459 -0.18674 -31.67542 -40.81653 -3.45008 49.54967 -2.52664 -18.17591 5.07483 5.36323 -0.83079 138.98368 -64.76794 64.16632 5.33172 108.32955 20.95286 0.54639 169.88194 171.02966 90.01163 136.82256 -79.49128 -70.53829 4.44712 66.38402 -2.54235 -7.89843 -23.63617 -7.48037 -4.04683 -2.80702 33.76427 -0.86867 9.90553 -21.46894 -6.2291 2.92819 2.13867
0.34354 -0.02465 -0.17439 -31.73147 -40.74776 -4.00162 49.61531 -2.39815 -18.75966 5.1931 5.74591 -0.83079 138.24027 -65.01275 64.16648 5.33238 107.15875 21.15723 0.35825 169.88196 170.97254 90.01164 136.4836 -79.38753 -71.3522 4.4964 65.54651 -1.69097 -7.1037 -23.81346 -7.52836 -3.90901 -2.73281 32.56783 -0.30363 8.44643 -21.19409 -6.28216 3.08746 2.22771
0.35581 -0.02486 -0.16215 -31.79327 -40.65897 -4.59843 49.67478 -2.23736 -19.38324 5.29707 6.1509 -0.83079 137.44768 -65.21787 64.16668 5.33219 105.91714 21.35965 0.16352 169.88197 171.17196 90.01166 136.12361 -79.18321 -72.25666 4.60631 64.70838 -0.76001 -6.01358 -24.02553 -7.59461 -3.76987 -2.6585 31.28453 0.2451 6.82855 -20.81465 -6.31309 3.27671 2.33225
0.36796 -0.02465 -0.14952 -31.85039 -40.59598 -5.12979 49.73853 -2.13404 -19.95 5.44294 6.52053 -0.83079 136.71861 -65.52262 64.16689 5.33375 104.75237 21.57887 -0.02343 169.88198 170.83443 90.01167 135.78411 -79.18007 -73.01197 4.59606 63.79475 0.04413 -5.48377 -24.17999 -7.63606 -3.61992 -2.57791 30.171 0.8479 5.45218 -20.65722 -6.39999 3.4116 2.40944
